<svg xmlns="http://www.w3.org/2000/svg" xmlns:xlink="http://www.w3.org/1999/xlink" width="500" zoomAndPan="magnify" viewBox="0 0 375 374.999991" height="500" preserveAspectRatio="xMidYMid meet" version="1.0"><defs><g/><clipPath id="4e2f16e3f3"><path d="M 43.539062 43.539062 L 331.539062 43.539062 L 331.539062 331.539062 L 43.539062 331.539062 Z M 43.539062 43.539062 " clip-rule="nonzero"/></clipPath><clipPath id="01bb6e191f"><path d="M 55.746094 176 L 320.496094 176 L 320.496094 322.234375 L 55.746094 322.234375 Z M 55.746094 176 " clip-rule="nonzero"/></clipPath><clipPath id="4a46b25715"><path d="M 59 60.484375 L 315 60.484375 L 315 171 L 59 171 Z M 59 60.484375 " clip-rule="nonzero"/></clipPath><clipPath id="2bc1ae8d0a"><path d="M 212 202 L 245.566406 202 L 245.566406 250 L 212 250 Z M 212 202 " clip-rule="nonzero"/></clipPath><clipPath id="2c7f595f48"><path d="M 139 136.585938 L 245.566406 136.585938 L 245.566406 233 L 139 233 Z M 139 136.585938 " clip-rule="nonzero"/></clipPath><clipPath id="3ac8a5905d"><path d="M 119.566406 178 L 211 178 L 211 253.585938 L 119.566406 253.585938 Z M 119.566406 178 " clip-rule="nonzero"/></clipPath><clipPath id="de19c5ff62"><path d="M 93 215.480469 L 102.453125 215.480469 L 102.453125 224.933594 L 93 224.933594 Z M 93 215.480469 " clip-rule="nonzero"/></clipPath><clipPath id="60bd0f08ac"><path d="M 97.726562 215.480469 C 95.117188 215.480469 93 217.59375 93 220.207031 C 93 222.816406 95.117188 224.933594 97.726562 224.933594 C 100.339844 224.933594 102.453125 222.816406 102.453125 220.207031 C 102.453125 217.59375 100.339844 215.480469 97.726562 215.480469 Z M 97.726562 215.480469 " clip-rule="nonzero"/></clipPath><clipPath id="3272a1b9bb"><path d="M 274.238281 215.480469 L 283.691406 215.480469 L 283.691406 224.933594 L 274.238281 224.933594 Z M 274.238281 215.480469 " clip-rule="nonzero"/></clipPath><clipPath id="227f62de37"><path d="M 278.964844 215.480469 C 276.355469 215.480469 274.238281 217.59375 274.238281 220.207031 C 274.238281 222.816406 276.355469 224.933594 278.964844 224.933594 C 281.574219 224.933594 283.691406 222.816406 283.691406 220.207031 C 283.691406 217.59375 281.574219 215.480469 278.964844 215.480469 Z M 278.964844 215.480469 " clip-rule="nonzero"/></clipPath></defs><path fill="#e0ddd6" d="M 325.257812 187.496094 C 325.257812 189.75 325.203125 192.003906 325.09375 194.257812 C 324.984375 196.507812 324.816406 198.757812 324.597656 201 C 324.375 203.242188 324.097656 205.480469 323.769531 207.710938 C 323.4375 209.941406 323.050781 212.160156 322.613281 214.371094 C 322.171875 216.585938 321.679688 218.78125 321.128906 220.96875 C 320.582031 223.15625 319.980469 225.328125 319.328125 227.488281 C 318.671875 229.644531 317.964844 231.785156 317.207031 233.90625 C 316.445312 236.03125 315.636719 238.132812 314.773438 240.214844 C 313.910156 242.300781 312.996094 244.359375 312.03125 246.398438 C 311.070312 248.4375 310.054688 250.449219 308.992188 252.4375 C 307.929688 254.425781 306.820312 256.386719 305.660156 258.320312 C 304.5 260.253906 303.292969 262.160156 302.042969 264.035156 C 300.789062 265.90625 299.492188 267.75 298.148438 269.5625 C 296.804688 271.371094 295.417969 273.148438 293.988281 274.890625 C 292.558594 276.636719 291.085938 278.339844 289.570312 280.011719 C 288.058594 281.683594 286.503906 283.316406 284.910156 284.910156 C 283.316406 286.503906 281.683594 288.058594 280.011719 289.570312 C 278.339844 291.085938 276.636719 292.558594 274.890625 293.988281 C 273.148438 295.417969 271.371094 296.804688 269.5625 298.148438 C 267.75 299.492188 265.90625 300.789062 264.035156 302.042969 C 262.160156 303.292969 260.253906 304.5 258.320312 305.660156 C 256.386719 306.820312 254.425781 307.929688 252.4375 308.992188 C 250.449219 310.054688 248.4375 311.070312 246.398438 312.03125 C 244.359375 312.996094 242.300781 313.910156 240.214844 314.773438 C 238.132812 315.636719 236.03125 316.445312 233.90625 317.207031 C 231.785156 317.964844 229.644531 318.671875 227.488281 319.328125 C 225.328125 319.980469 223.15625 320.582031 220.96875 321.128906 C 218.78125 321.679688 216.585938 322.171875 214.371094 322.613281 C 212.160156 323.050781 209.941406 323.4375 207.710938 323.769531 C 205.480469 324.097656 203.242188 324.375 201 324.597656 C 198.757812 324.816406 196.507812 324.984375 194.257812 325.09375 C 192.003906 325.203125 189.75 325.257812 187.496094 325.257812 C 185.242188 325.257812 182.988281 325.203125 180.738281 325.09375 C 178.484375 324.984375 176.238281 324.816406 173.992188 324.597656 C 171.75 324.375 169.511719 324.097656 167.28125 323.769531 C 165.050781 323.4375 162.832031 323.050781 160.621094 322.613281 C 158.410156 322.171875 156.210938 321.679688 154.023438 321.128906 C 151.835938 320.582031 149.664062 319.980469 147.507812 319.328125 C 145.347656 318.671875 143.207031 317.964844 141.085938 317.207031 C 138.964844 316.445312 136.859375 315.636719 134.777344 314.773438 C 132.695312 313.910156 130.632812 312.996094 128.59375 312.03125 C 126.558594 311.070312 124.542969 310.054688 122.554688 308.992188 C 120.566406 307.929688 118.605469 306.820312 116.671875 305.660156 C 114.738281 304.5 112.835938 303.292969 110.960938 302.042969 C 109.085938 300.789062 107.242188 299.492188 105.433594 298.148438 C 103.621094 296.804688 101.84375 295.417969 100.101562 293.988281 C 98.359375 292.558594 96.652344 291.085938 94.980469 289.570312 C 93.308594 288.058594 91.679688 286.503906 90.082031 284.910156 C 88.488281 283.316406 86.933594 281.683594 85.421875 280.011719 C 83.90625 278.339844 82.433594 276.636719 81.003906 274.890625 C 79.574219 273.148438 78.1875 271.371094 76.84375 269.5625 C 75.5 267.75 74.203125 265.90625 72.953125 264.035156 C 71.699219 262.160156 70.492188 260.253906 69.332031 258.320312 C 68.175781 256.386719 67.0625 254.425781 66 252.4375 C 64.9375 250.449219 63.925781 248.4375 62.960938 246.398438 C 61.996094 244.359375 61.082031 242.300781 60.222656 240.214844 C 59.359375 238.132812 58.546875 236.03125 57.789062 233.90625 C 57.027344 231.785156 56.320312 229.644531 55.667969 227.488281 C 55.011719 225.328125 54.410156 223.15625 53.863281 220.96875 C 53.316406 218.78125 52.820312 216.585938 52.382812 214.371094 C 51.941406 212.160156 51.554688 209.941406 51.226562 207.710938 C 50.894531 205.480469 50.617188 203.242188 50.398438 201 C 50.175781 198.757812 50.011719 196.507812 49.898438 194.257812 C 49.789062 192.003906 49.734375 189.75 49.734375 187.496094 C 49.734375 185.242188 49.789062 182.988281 49.898438 180.738281 C 50.011719 178.484375 50.175781 176.238281 50.398438 173.992188 C 50.617188 171.75 50.894531 169.511719 51.226562 167.28125 C 51.554688 165.050781 51.941406 162.832031 52.382812 160.621094 C 52.820312 158.410156 53.316406 156.210938 53.863281 154.023438 C 54.410156 151.835938 55.011719 149.664062 55.667969 147.507812 C 56.320312 145.347656 57.027344 143.207031 57.789062 141.085938 C 58.546875 138.964844 59.359375 136.859375 60.222656 134.777344 C 61.082031 132.695312 61.996094 130.632812 62.960938 128.59375 C 63.925781 126.558594 64.9375 124.542969 66 122.554688 C 67.0625 120.566406 68.175781 118.605469 69.332031 116.671875 C 70.492188 114.738281 71.699219 112.835938 72.953125 110.960938 C 74.203125 109.085938 75.5 107.242188 76.84375 105.433594 C 78.1875 103.621094 79.574219 101.84375 81.003906 100.101562 C 82.433594 98.359375 83.90625 96.652344 85.421875 94.980469 C 86.933594 93.308594 88.488281 91.679688 90.082031 90.082031 C 91.679688 88.488281 93.308594 86.933594 94.980469 85.421875 C 96.652344 83.90625 98.359375 82.433594 100.101562 81.003906 C 101.84375 79.574219 103.621094 78.1875 105.433594 76.84375 C 107.242188 75.5 109.085938 74.203125 110.960938 72.953125 C 112.835938 71.699219 114.738281 70.492188 116.671875 69.332031 C 118.605469 68.175781 120.566406 67.0625 122.554688 66 C 124.542969 64.9375 126.558594 63.925781 128.59375 62.960938 C 130.632812 61.996094 132.695312 61.082031 134.777344 60.222656 C 136.859375 59.359375 138.964844 58.546875 141.085938 57.789062 C 143.207031 57.027344 145.347656 56.320312 147.507812 55.667969 C 149.664062 55.011719 151.835938 54.410156 154.023438 53.863281 C 156.210938 53.316406 158.410156 52.820312 160.621094 52.382812 C 162.832031 51.941406 165.050781 51.554688 167.28125 51.226562 C 169.511719 50.894531 171.75 50.617188 173.992188 50.398438 C 176.238281 50.175781 178.484375 50.011719 180.738281 49.898438 C 182.988281 49.789062 185.242188 49.734375 187.496094 49.734375 C 189.75 49.734375 192.003906 49.789062 194.257812 49.898438 C 196.507812 50.011719 198.757812 50.175781 201 50.398438 C 203.242188 50.617188 205.480469 50.894531 207.710938 51.226562 C 209.941406 51.554688 212.160156 51.941406 214.371094 52.382812 C 216.585938 52.820312 218.78125 53.316406 220.96875 53.863281 C 223.15625 54.410156 225.328125 55.011719 227.488281 55.667969 C 229.644531 56.320312 231.785156 57.027344 233.90625 57.789062 C 236.03125 58.546875 238.132812 59.359375 240.214844 60.222656 C 242.300781 61.082031 244.359375 61.996094 246.398438 62.960938 C 248.4375 63.925781 250.449219 64.9375 252.4375 66 C 254.425781 67.0625 256.386719 68.175781 258.320312 69.332031 C 260.253906 70.492188 262.160156 71.699219 264.035156 72.953125 C 265.90625 74.203125 267.75 75.5 269.5625 76.84375 C 271.371094 78.1875 273.148438 79.574219 274.890625 81.003906 C 276.636719 82.433594 278.339844 83.90625 280.011719 85.421875 C 281.683594 86.933594 283.316406 88.488281 284.910156 90.082031 C 286.503906 91.679688 288.058594 93.308594 289.570312 94.980469 C 291.085938 96.652344 292.558594 98.359375 293.988281 100.101562 C 295.417969 101.84375 296.804688 103.621094 298.148438 105.433594 C 299.492188 107.242188 300.789062 109.085938 302.042969 110.960938 C 303.292969 112.835938 304.5 114.738281 305.660156 116.671875 C 306.820312 118.605469 307.929688 120.566406 308.992188 122.554688 C 310.054688 124.542969 311.070312 126.558594 312.03125 128.59375 C 312.996094 130.632812 313.910156 132.695312 314.773438 134.777344 C 315.636719 136.859375 316.445312 138.964844 317.207031 141.085938 C 317.964844 143.207031 318.671875 145.347656 319.328125 147.507812 C 319.980469 149.664062 320.582031 151.835938 321.128906 154.023438 C 321.679688 156.210938 322.171875 158.410156 322.613281 160.621094 C 323.050781 162.832031 323.4375 165.050781 323.769531 167.28125 C 324.097656 169.511719 324.375 171.75 324.597656 173.992188 C 324.816406 176.238281 324.984375 178.484375 325.09375 180.738281 C 325.203125 182.988281 325.257812 185.242188 325.257812 187.496094 Z M 325.257812 187.496094 " fill-opacity="1" fill-rule="nonzero"/><g clip-path="url(#4e2f16e3f3)"><path fill="#000000" d="M 187.496094 331.453125 C 168.066406 331.453125 149.210938 327.644531 131.460938 320.136719 C 122.929688 316.53125 114.699219 312.0625 107.003906 306.863281 C 99.382812 301.714844 92.214844 295.800781 85.703125 289.289062 C 79.191406 282.777344 73.277344 275.609375 68.128906 267.988281 C 62.929688 260.292969 58.464844 252.066406 54.855469 243.535156 C 47.347656 225.78125 43.539062 206.929688 43.539062 187.496094 C 43.539062 168.066406 47.347656 149.210938 54.855469 131.460938 C 58.464844 122.929688 62.929688 114.699219 68.128906 107.003906 C 73.277344 99.382812 79.191406 92.214844 85.703125 85.703125 C 92.214844 79.191406 99.382812 73.277344 107.003906 68.128906 C 114.699219 62.929688 122.929688 58.464844 131.460938 54.855469 C 149.210938 47.347656 168.066406 43.539062 187.496094 43.539062 C 206.929688 43.539062 225.78125 47.347656 243.535156 54.855469 C 252.066406 58.464844 260.292969 62.929688 267.988281 68.128906 C 275.609375 73.277344 282.777344 79.191406 289.289062 85.703125 C 295.800781 92.214844 301.714844 99.382812 306.863281 107.003906 C 312.0625 114.699219 316.53125 122.929688 320.136719 131.460938 C 327.648438 149.210938 331.453125 168.066406 331.453125 187.496094 C 331.453125 206.929688 327.644531 225.78125 320.136719 243.535156 C 316.53125 252.066406 312.0625 260.292969 306.863281 267.988281 C 301.714844 275.609375 295.800781 282.777344 289.289062 289.289062 C 282.777344 295.800781 275.609375 301.714844 267.988281 306.863281 C 260.292969 312.0625 252.066406 316.53125 243.535156 320.136719 C 225.78125 327.648438 206.925781 331.453125 187.496094 331.453125 Z M 187.496094 55.929688 C 114.949219 55.929688 55.925781 114.949219 55.925781 187.496094 C 55.925781 260.042969 114.949219 319.066406 187.496094 319.066406 C 260.042969 319.066406 319.066406 260.042969 319.066406 187.496094 C 319.066406 114.949219 260.042969 55.929688 187.496094 55.929688 Z M 187.496094 55.929688 " fill-opacity="1" fill-rule="nonzero"/></g><g clip-path="url(#01bb6e191f)"><path fill="#bcb636" d="M 319.5625 176.699219 C 320.003906 181.089844 320.230469 185.546875 320.230469 190.054688 C 320.230469 263.089844 261.027344 322.292969 187.992188 322.292969 C 114.957031 322.292969 55.75 263.089844 55.75 190.054688 C 55.75 185.546875 55.980469 181.089844 56.417969 176.699219 Z M 319.5625 176.699219 " fill-opacity="1" fill-rule="evenodd"/></g><path fill="#6d7a32" d="M 309.710938 190.054688 C 309.710938 192.046875 309.660156 194.035156 309.5625 196.027344 C 309.464844 198.015625 309.320312 200.003906 309.125 201.984375 C 308.929688 203.96875 308.6875 205.945312 308.394531 207.914062 C 308.101562 209.882812 307.761719 211.847656 307.371094 213.800781 C 306.984375 215.753906 306.546875 217.695312 306.0625 219.628906 C 305.578125 221.5625 305.046875 223.480469 304.46875 225.386719 C 303.890625 227.292969 303.265625 229.183594 302.59375 231.058594 C 301.925781 232.933594 301.207031 234.792969 300.445312 236.632812 C 299.683594 238.472656 298.875 240.292969 298.023438 242.09375 C 297.171875 243.894531 296.277344 245.675781 295.339844 247.433594 C 294.398438 249.1875 293.417969 250.921875 292.394531 252.628906 C 291.371094 254.339844 290.304688 256.019531 289.199219 257.675781 C 288.089844 259.332031 286.945312 260.960938 285.757812 262.5625 C 284.570312 264.160156 283.34375 265.730469 282.082031 267.273438 C 280.816406 268.8125 279.515625 270.320312 278.179688 271.796875 C 276.839844 273.269531 275.46875 274.714844 274.058594 276.121094 C 272.652344 277.53125 271.210938 278.902344 269.734375 280.242188 C 268.257812 281.578125 266.75 282.878906 265.210938 284.144531 C 263.667969 285.40625 262.101562 286.632812 260.5 287.820312 C 258.898438 289.007812 257.273438 290.152344 255.613281 291.257812 C 253.957031 292.367188 252.277344 293.433594 250.566406 294.457031 C 248.859375 295.480469 247.125 296.460938 245.371094 297.402344 C 243.613281 298.339844 241.835938 299.234375 240.035156 300.085938 C 238.234375 300.9375 236.410156 301.746094 234.570312 302.507812 C 232.730469 303.269531 230.875 303.988281 228.996094 304.65625 C 227.121094 305.328125 225.230469 305.953125 223.324219 306.53125 C 221.417969 307.109375 219.5 307.640625 217.566406 308.125 C 215.632812 308.609375 213.691406 309.046875 211.738281 309.433594 C 209.785156 309.824219 207.820312 310.164062 205.851562 310.457031 C 203.882812 310.746094 201.90625 310.992188 199.921875 311.1875 C 197.941406 311.382812 195.953125 311.527344 193.964844 311.625 C 191.976562 311.722656 189.984375 311.773438 187.992188 311.773438 C 186 311.773438 184.007812 311.722656 182.019531 311.625 C 180.03125 311.527344 178.042969 311.382812 176.0625 311.1875 C 174.078125 310.992188 172.101562 310.746094 170.132812 310.457031 C 168.160156 310.164062 166.199219 309.824219 164.246094 309.433594 C 162.292969 309.046875 160.347656 308.609375 158.417969 308.125 C 156.484375 307.640625 154.566406 307.109375 152.660156 306.53125 C 150.753906 305.953125 148.863281 305.328125 146.984375 304.65625 C 145.109375 303.988281 143.253906 303.269531 141.410156 302.507812 C 139.570312 301.746094 137.75 300.9375 135.949219 300.085938 C 134.148438 299.234375 132.371094 298.339844 130.613281 297.402344 C 128.855469 296.460938 127.125 295.480469 125.414062 294.457031 C 123.707031 293.433594 122.023438 292.367188 120.367188 291.257812 C 118.710938 290.152344 117.082031 289.007812 115.484375 287.820312 C 113.882812 286.632812 112.3125 285.40625 110.773438 284.144531 C 109.234375 282.878906 107.726562 281.578125 106.25 280.242188 C 104.773438 278.902344 103.332031 277.53125 101.921875 276.121094 C 100.515625 274.714844 99.140625 273.269531 97.804688 271.796875 C 96.464844 270.320312 95.164062 268.8125 93.902344 267.273438 C 92.636719 265.730469 91.414062 264.160156 90.226562 262.5625 C 89.039062 260.960938 87.894531 259.332031 86.785156 257.675781 C 85.679688 256.019531 84.613281 254.339844 83.589844 252.628906 C 82.566406 250.921875 81.585938 249.1875 80.644531 247.433594 C 79.707031 245.675781 78.8125 243.894531 77.960938 242.09375 C 77.109375 240.292969 76.300781 238.472656 75.539062 236.632812 C 74.777344 234.792969 74.058594 232.933594 73.386719 231.058594 C 72.71875 229.183594 72.09375 227.292969 71.515625 225.386719 C 70.9375 223.480469 70.40625 221.5625 69.921875 219.628906 C 69.4375 217.695312 69 215.753906 68.613281 213.800781 C 68.222656 211.847656 67.882812 209.882812 67.589844 207.914062 C 67.296875 205.945312 67.054688 203.96875 66.859375 201.984375 C 66.664062 200.003906 66.515625 198.015625 66.417969 196.027344 C 66.320312 194.035156 66.273438 192.046875 66.273438 190.054688 C 66.273438 188.0625 66.320312 186.070312 66.417969 184.082031 C 66.515625 182.09375 66.664062 180.105469 66.859375 178.125 C 67.054688 176.140625 67.296875 174.164062 67.589844 172.195312 C 67.882812 170.222656 68.222656 168.261719 68.613281 166.308594 C 69 164.355469 69.4375 162.410156 69.921875 160.480469 C 70.40625 158.546875 70.9375 156.628906 71.515625 154.722656 C 72.09375 152.816406 72.71875 150.921875 73.386719 149.046875 C 74.058594 147.171875 74.777344 145.316406 75.539062 143.472656 C 76.300781 141.632812 77.109375 139.8125 77.960938 138.011719 C 78.8125 136.210938 79.707031 134.433594 80.644531 132.675781 C 81.585938 130.917969 82.566406 129.1875 83.589844 127.476562 C 84.613281 125.769531 85.679688 124.085938 86.785156 122.429688 C 87.894531 120.773438 89.039062 119.144531 90.226562 117.546875 C 91.414062 115.945312 92.636719 114.375 93.902344 112.835938 C 95.164062 111.296875 96.464844 109.789062 97.804688 108.3125 C 99.140625 106.835938 100.515625 105.394531 101.921875 103.984375 C 103.332031 102.578125 104.773438 101.203125 106.25 99.867188 C 107.726562 98.527344 109.234375 97.226562 110.773438 95.964844 C 112.3125 94.699219 113.882812 93.476562 115.484375 92.289062 C 117.082031 91.101562 118.710938 89.957031 120.367188 88.847656 C 122.023438 87.742188 123.707031 86.675781 125.414062 85.652344 C 127.125 84.628906 128.855469 83.648438 130.613281 82.707031 C 132.371094 81.769531 134.148438 80.875 135.949219 80.019531 C 137.75 79.167969 139.570312 78.363281 141.410156 77.601562 C 143.253906 76.839844 145.109375 76.121094 146.984375 75.449219 C 148.863281 74.777344 150.753906 74.15625 152.660156 73.578125 C 154.566406 73 156.484375 72.46875 158.417969 71.984375 C 160.347656 71.5 162.292969 71.0625 164.246094 70.675781 C 166.199219 70.285156 168.160156 69.945312 170.132812 69.652344 C 172.101562 69.359375 174.078125 69.117188 176.0625 68.921875 C 178.042969 68.726562 180.03125 68.578125 182.019531 68.480469 C 184.007812 68.382812 186 68.335938 187.992188 68.335938 C 189.984375 68.335938 191.976562 68.382812 193.964844 68.480469 C 195.953125 68.578125 197.941406 68.726562 199.921875 68.921875 C 201.90625 69.117188 203.882812 69.359375 205.851562 69.652344 C 207.820312 69.945312 209.785156 70.285156 211.738281 70.675781 C 213.691406 71.0625 215.632812 71.5 217.566406 71.984375 C 219.5 72.46875 221.417969 72.996094 223.324219 73.578125 C 225.230469 74.15625 227.121094 74.777344 228.996094 75.449219 C 230.875 76.121094 232.730469 76.839844 234.570312 77.601562 C 236.410156 78.363281 238.234375 79.167969 240.035156 80.019531 C 241.835938 80.875 243.613281 81.769531 245.371094 82.707031 C 247.125 83.648438 248.859375 84.628906 250.566406 85.652344 C 252.277344 86.675781 253.957031 87.742188 255.613281 88.847656 C 257.269531 89.957031 258.898438 91.101562 260.5 92.289062 C 262.101562 93.476562 263.667969 94.699219 265.210938 95.964844 C 266.75 97.226562 268.257812 98.527344 269.734375 99.867188 C 271.210938 101.203125 272.652344 102.578125 274.058594 103.984375 C 275.46875 105.394531 276.839844 106.835938 278.179688 108.3125 C 279.515625 109.789062 280.816406 111.296875 282.082031 112.835938 C 283.34375 114.375 284.570312 115.945312 285.757812 117.546875 C 286.945312 119.144531 288.089844 120.773438 289.199219 122.429688 C 290.304688 124.085938 291.371094 125.769531 292.394531 127.476562 C 293.417969 129.1875 294.398438 130.917969 295.339844 132.675781 C 296.277344 134.433594 297.171875 136.210938 298.023438 138.011719 C 298.875 139.8125 299.683594 141.632812 300.445312 143.472656 C 301.207031 145.316406 301.925781 147.171875 302.59375 149.046875 C 303.265625 150.921875 303.890625 152.816406 304.46875 154.722656 C 305.046875 156.628906 305.578125 158.546875 306.0625 160.480469 C 306.546875 162.410156 306.984375 164.355469 307.371094 166.308594 C 307.761719 168.261719 308.101562 170.222656 308.394531 172.195312 C 308.6875 174.164062 308.929688 176.140625 309.125 178.125 C 309.320312 180.105469 309.464844 182.09375 309.5625 184.082031 C 309.660156 186.070312 309.710938 188.0625 309.710938 190.054688 Z M 309.710938 190.054688 " fill-opacity="1" fill-rule="nonzero"/><path fill="#ffffff" d="M 300.027344 190.054688 C 300.027344 191.886719 299.980469 193.71875 299.890625 195.550781 C 299.800781 197.382812 299.667969 199.210938 299.488281 201.035156 C 299.308594 202.859375 299.082031 204.679688 298.8125 206.492188 C 298.546875 208.308594 298.230469 210.113281 297.875 211.910156 C 297.515625 213.710938 297.113281 215.496094 296.667969 217.277344 C 296.222656 219.054688 295.734375 220.820312 295.203125 222.574219 C 294.671875 224.332031 294.09375 226.070312 293.476562 227.796875 C 292.859375 229.523438 292.199219 231.234375 291.5 232.929688 C 290.796875 234.621094 290.054688 236.296875 289.269531 237.957031 C 288.484375 239.613281 287.664062 241.25 286.796875 242.867188 C 285.933594 244.484375 285.03125 246.078125 284.085938 247.652344 C 283.144531 249.222656 282.164062 250.773438 281.144531 252.296875 C 280.125 253.820312 279.070312 255.320312 277.980469 256.792969 C 276.886719 258.265625 275.757812 259.710938 274.597656 261.128906 C 273.433594 262.546875 272.234375 263.933594 271.003906 265.292969 C 269.773438 266.652344 268.507812 267.976562 267.210938 269.273438 C 265.914062 270.570312 264.589844 271.835938 263.230469 273.066406 C 261.871094 274.296875 260.484375 275.496094 259.066406 276.65625 C 257.648438 277.820312 256.203125 278.949219 254.730469 280.042969 C 253.257812 281.132812 251.757812 282.1875 250.234375 283.207031 C 248.710938 284.226562 247.160156 285.207031 245.589844 286.148438 C 244.015625 287.09375 242.421875 287.996094 240.804688 288.859375 C 239.1875 289.722656 237.550781 290.546875 235.894531 291.332031 C 234.234375 292.117188 232.558594 292.859375 230.867188 293.5625 C 229.171875 294.261719 227.460938 294.921875 225.734375 295.539062 C 224.007812 296.15625 222.269531 296.734375 220.515625 297.265625 C 218.757812 297.796875 216.992188 298.285156 215.214844 298.730469 C 213.433594 299.175781 211.648438 299.578125 209.847656 299.9375 C 208.050781 300.292969 206.246094 300.605469 204.429688 300.875 C 202.617188 301.144531 200.796875 301.371094 198.972656 301.550781 C 197.148438 301.730469 195.320312 301.863281 193.488281 301.953125 C 191.65625 302.042969 189.824219 302.089844 187.992188 302.089844 C 186.160156 302.089844 184.324219 302.042969 182.496094 301.953125 C 180.664062 301.863281 178.835938 301.730469 177.011719 301.550781 C 175.1875 301.371094 173.367188 301.144531 171.554688 300.875 C 169.738281 300.605469 167.933594 300.292969 166.136719 299.9375 C 164.335938 299.578125 162.546875 299.175781 160.769531 298.730469 C 158.992188 298.285156 157.222656 297.796875 155.46875 297.265625 C 153.714844 296.734375 151.976562 296.15625 150.25 295.539062 C 148.523438 294.921875 146.8125 294.261719 145.117188 293.5625 C 143.425781 292.859375 141.75 292.117188 140.089844 291.332031 C 138.433594 290.546875 136.796875 289.722656 135.179688 288.859375 C 133.5625 287.996094 131.96875 287.09375 130.394531 286.148438 C 128.820312 285.207031 127.273438 284.226562 125.75 283.207031 C 124.222656 282.1875 122.726562 281.132812 121.253906 280.042969 C 119.78125 278.949219 118.335938 277.820312 116.917969 276.65625 C 115.5 275.496094 114.113281 274.296875 112.753906 273.066406 C 111.394531 271.835938 110.066406 270.570312 108.769531 269.273438 C 107.476562 267.976562 106.210938 266.652344 104.980469 265.292969 C 103.75 263.933594 102.550781 262.546875 101.386719 261.128906 C 100.222656 259.710938 99.097656 258.265625 98.003906 256.792969 C 96.914062 255.320312 95.855469 253.820312 94.839844 252.296875 C 93.820312 250.773438 92.839844 249.222656 91.894531 247.652344 C 90.953125 246.078125 90.050781 244.484375 89.1875 242.867188 C 88.320312 241.25 87.496094 239.613281 86.714844 237.957031 C 85.929688 236.296875 85.1875 234.621094 84.484375 232.929688 C 83.785156 231.234375 83.125 229.523438 82.507812 227.796875 C 81.886719 226.070312 81.3125 224.332031 80.78125 222.574219 C 80.25 220.820312 79.761719 219.054688 79.3125 217.277344 C 78.867188 215.496094 78.46875 213.710938 78.109375 211.910156 C 77.75 210.113281 77.4375 208.308594 77.167969 206.492188 C 76.902344 204.679688 76.675781 202.859375 76.496094 201.035156 C 76.316406 199.210938 76.183594 197.382812 76.09375 195.550781 C 76 193.71875 75.957031 191.886719 75.957031 190.054688 C 75.957031 188.21875 76 186.386719 76.09375 184.558594 C 76.183594 182.726562 76.316406 180.898438 76.496094 179.074219 C 76.675781 177.246094 76.902344 175.429688 77.167969 173.613281 C 77.4375 171.800781 77.75 169.996094 78.109375 168.195312 C 78.46875 166.398438 78.867188 164.609375 79.3125 162.832031 C 79.761719 161.054688 80.25 159.285156 80.78125 157.53125 C 81.3125 155.777344 81.886719 154.035156 82.507812 152.3125 C 83.125 150.585938 83.785156 148.875 84.484375 147.179688 C 85.1875 145.484375 85.929688 143.808594 86.714844 142.152344 C 87.496094 140.496094 88.320312 138.859375 89.1875 137.242188 C 90.050781 135.625 90.953125 134.027344 91.894531 132.457031 C 92.839844 130.882812 93.820312 129.335938 94.839844 127.8125 C 95.855469 126.285156 96.914062 124.789062 98.003906 123.316406 C 99.097656 121.84375 100.222656 120.398438 101.386719 118.980469 C 102.550781 117.5625 103.75 116.175781 104.980469 114.816406 C 106.210938 113.457031 107.476562 112.128906 108.769531 110.832031 C 110.066406 109.535156 111.394531 108.273438 112.753906 107.042969 C 114.113281 105.808594 115.5 104.613281 116.917969 103.449219 C 118.335938 102.285156 119.78125 101.160156 121.253906 100.066406 C 122.726562 98.972656 124.222656 97.917969 125.75 96.898438 C 127.273438 95.882812 128.820312 94.902344 130.394531 93.957031 C 131.96875 93.015625 133.5625 92.113281 135.179688 91.246094 C 136.796875 90.382812 138.433594 89.558594 140.089844 88.777344 C 141.75 87.992188 143.425781 87.25 145.117188 86.546875 C 146.8125 85.84375 148.523438 85.1875 150.25 84.566406 C 151.976562 83.949219 153.714844 83.375 155.46875 82.84375 C 157.222656 82.3125 158.992188 81.820312 160.769531 81.375 C 162.546875 80.929688 164.335938 80.53125 166.136719 80.171875 C 167.933594 79.8125 169.738281 79.5 171.554688 79.230469 C 173.367188 78.960938 175.1875 78.738281 177.011719 78.558594 C 178.835938 78.378906 180.664062 78.242188 182.496094 78.152344 C 184.324219 78.0625 186.160156 78.019531 187.992188 78.019531 C 189.824219 78.019531 191.65625 78.0625 193.488281 78.152344 C 195.320312 78.242188 197.148438 78.378906 198.972656 78.558594 C 200.796875 78.738281 202.617188 78.960938 204.429688 79.230469 C 206.246094 79.5 208.050781 79.8125 209.847656 80.171875 C 211.648438 80.53125 213.433594 80.929688 215.214844 81.375 C 216.992188 81.820312 218.757812 82.3125 220.515625 82.84375 C 222.269531 83.375 224.007812 83.949219 225.734375 84.566406 C 227.460938 85.1875 229.171875 85.84375 230.867188 86.546875 C 232.558594 87.25 234.234375 87.992188 235.894531 88.777344 C 237.550781 89.558594 239.1875 90.382812 240.804688 91.246094 C 242.421875 92.113281 244.015625 93.015625 245.589844 93.957031 C 247.160156 94.902344 248.710938 95.882812 250.234375 96.898438 C 251.757812 97.917969 253.257812 98.972656 254.730469 100.066406 C 256.203125 101.160156 257.648438 102.285156 259.066406 103.449219 C 260.484375 104.613281 261.871094 105.808594 263.230469 107.042969 C 264.589844 108.273438 265.914062 109.535156 267.210938 110.832031 C 268.507812 112.128906 269.773438 113.457031 271.003906 114.816406 C 272.234375 116.175781 273.433594 117.5625 274.597656 118.980469 C 275.757812 120.398438 276.886719 121.84375 277.980469 123.316406 C 279.070312 124.789062 280.125 126.285156 281.144531 127.8125 C 282.164062 129.335938 283.144531 130.882812 284.085938 132.457031 C 285.03125 134.027344 285.933594 135.625 286.796875 137.242188 C 287.664062 138.859375 288.484375 140.496094 289.269531 142.152344 C 290.054688 143.808594 290.796875 145.484375 291.5 147.179688 C 292.199219 148.875 292.859375 150.585938 293.476562 152.3125 C 294.09375 154.035156 294.671875 155.777344 295.203125 157.53125 C 295.734375 159.285156 296.222656 161.054688 296.667969 162.832031 C 297.113281 164.609375 297.515625 166.398438 297.875 168.195312 C 298.230469 169.996094 298.546875 171.800781 298.8125 173.613281 C 299.082031 175.429688 299.308594 177.246094 299.488281 179.074219 C 299.667969 180.898438 299.800781 182.726562 299.890625 184.558594 C 299.980469 186.386719 300.027344 188.21875 300.027344 190.054688 Z M 300.027344 190.054688 " fill-opacity="1" fill-rule="nonzero"/><path fill="#ffffff" d="M 297.542969 190.054688 C 297.542969 191.847656 297.5 193.640625 297.410156 195.429688 C 297.324219 197.21875 297.191406 199.007812 297.015625 200.792969 C 296.839844 202.574219 296.621094 204.355469 296.355469 206.128906 C 296.09375 207.902344 295.789062 209.667969 295.4375 211.425781 C 295.085938 213.183594 294.695312 214.933594 294.257812 216.671875 C 293.824219 218.410156 293.347656 220.140625 292.824219 221.855469 C 292.304688 223.570312 291.742188 225.273438 291.140625 226.960938 C 290.535156 228.648438 289.890625 230.320312 289.203125 231.976562 C 288.515625 233.632812 287.792969 235.273438 287.023438 236.894531 C 286.257812 238.515625 285.453125 240.113281 284.605469 241.695312 C 283.761719 243.277344 282.878906 244.835938 281.957031 246.375 C 281.035156 247.914062 280.074219 249.425781 279.078125 250.917969 C 278.082031 252.40625 277.050781 253.875 275.984375 255.3125 C 274.914062 256.753906 273.8125 258.167969 272.675781 259.550781 C 271.539062 260.9375 270.367188 262.296875 269.164062 263.625 C 267.960938 264.953125 266.722656 266.25 265.457031 267.519531 C 264.1875 268.785156 262.890625 270.023438 261.5625 271.226562 C 260.234375 272.429688 258.875 273.601562 257.488281 274.738281 C 256.105469 275.875 254.691406 276.976562 253.25 278.046875 C 251.8125 279.113281 250.34375 280.144531 248.855469 281.140625 C 247.363281 282.136719 245.851562 283.097656 244.3125 284.019531 C 242.773438 284.941406 241.214844 285.824219 239.632812 286.667969 C 238.050781 287.515625 236.453125 288.320312 234.832031 289.085938 C 233.210938 289.851562 231.570312 290.578125 229.914062 291.265625 C 228.257812 291.953125 226.585938 292.597656 224.898438 293.199219 C 223.210938 293.804688 221.507812 294.367188 219.792969 294.886719 C 218.078125 295.40625 216.351562 295.886719 214.609375 296.320312 C 212.871094 296.757812 211.121094 297.148438 209.363281 297.5 C 207.605469 297.851562 205.839844 298.15625 204.066406 298.417969 C 202.292969 298.683594 200.515625 298.902344 198.730469 299.078125 C 196.945312 299.253906 195.15625 299.386719 193.367188 299.472656 C 191.578125 299.5625 189.785156 299.605469 187.992188 299.605469 C 186.199219 299.605469 184.40625 299.5625 182.617188 299.472656 C 180.824219 299.386719 179.039062 299.253906 177.253906 299.078125 C 175.46875 298.902344 173.691406 298.683594 171.917969 298.417969 C 170.144531 298.15625 168.378906 297.851562 166.621094 297.5 C 164.859375 297.148438 163.113281 296.757812 161.375 296.320312 C 159.632812 295.886719 157.90625 295.40625 156.191406 294.886719 C 154.476562 294.367188 152.773438 293.804688 151.085938 293.199219 C 149.398438 292.597656 147.726562 291.953125 146.070312 291.265625 C 144.410156 290.578125 142.773438 289.851562 141.152344 289.085938 C 139.53125 288.320312 137.929688 287.515625 136.351562 286.667969 C 134.769531 285.824219 133.210938 284.941406 131.671875 284.019531 C 130.132812 283.097656 128.621094 282.136719 127.128906 281.140625 C 125.636719 280.144531 124.171875 279.113281 122.734375 278.046875 C 121.292969 276.976562 119.878906 275.875 118.492188 274.738281 C 117.109375 273.601562 115.75 272.429688 114.421875 271.226562 C 113.09375 270.023438 111.796875 268.785156 110.527344 267.519531 C 109.261719 266.25 108.023438 264.953125 106.820312 263.625 C 105.617188 262.296875 104.445312 260.9375 103.308594 259.550781 C 102.171875 258.167969 101.066406 256.753906 100 255.3125 C 98.933594 253.875 97.898438 252.40625 96.902344 250.917969 C 95.90625 249.425781 94.949219 247.914062 94.027344 246.375 C 93.105469 244.835938 92.222656 243.277344 91.375 241.695312 C 90.53125 240.113281 89.726562 238.515625 88.960938 236.894531 C 88.191406 235.273438 87.464844 233.632812 86.78125 231.976562 C 86.09375 230.320312 85.449219 228.648438 84.84375 226.960938 C 84.242188 225.273438 83.679688 223.570312 83.15625 221.855469 C 82.636719 220.140625 82.160156 218.410156 81.722656 216.671875 C 81.289062 214.933594 80.894531 213.183594 80.546875 211.425781 C 80.195312 209.667969 79.890625 207.902344 79.625 206.128906 C 79.363281 204.355469 79.144531 202.574219 78.96875 200.792969 C 78.792969 199.007812 78.660156 197.21875 78.574219 195.429688 C 78.484375 193.640625 78.441406 191.847656 78.441406 190.054688 C 78.441406 188.261719 78.484375 186.46875 78.574219 184.679688 C 78.660156 182.886719 78.792969 181.101562 78.96875 179.316406 C 79.144531 177.53125 79.363281 175.753906 79.625 173.980469 C 79.890625 172.207031 80.195312 170.441406 80.546875 168.683594 C 80.894531 166.921875 81.289062 165.175781 81.722656 163.433594 C 82.160156 161.695312 82.636719 159.96875 83.15625 158.253906 C 83.679688 156.539062 84.242188 154.835938 84.84375 153.148438 C 85.449219 151.460938 86.09375 149.789062 86.78125 148.128906 C 87.464844 146.472656 88.191406 144.835938 88.960938 143.214844 C 89.726562 141.59375 90.53125 139.992188 91.375 138.410156 C 92.222656 136.832031 93.105469 135.269531 94.027344 133.734375 C 94.949219 132.195312 95.90625 130.679688 96.902344 129.191406 C 97.898438 127.699219 98.933594 126.234375 100 124.792969 C 101.066406 123.355469 102.171875 121.941406 103.308594 120.554688 C 104.445312 119.167969 105.617188 117.8125 106.820312 116.484375 C 108.023438 115.15625 109.261719 113.859375 110.527344 112.589844 C 111.796875 111.320312 113.09375 110.085938 114.421875 108.882812 C 115.75 107.679688 117.109375 106.507812 118.492188 105.371094 C 119.878906 104.234375 121.292969 103.128906 122.730469 102.0625 C 124.171875 100.992188 125.636719 99.960938 127.128906 98.964844 C 128.621094 97.96875 130.132812 97.011719 131.671875 96.089844 C 133.210938 95.167969 134.769531 94.285156 136.351562 93.4375 C 137.929688 92.59375 139.53125 91.789062 141.152344 91.019531 C 142.773438 90.253906 144.410156 89.527344 146.070312 88.84375 C 147.726562 88.15625 149.398438 87.511719 151.085938 86.90625 C 152.773438 86.304688 154.476562 85.742188 156.191406 85.21875 C 157.90625 84.699219 159.632812 84.222656 161.375 83.785156 C 163.113281 83.351562 164.859375 82.957031 166.621094 82.609375 C 168.378906 82.257812 170.144531 81.953125 171.917969 81.6875 C 173.691406 81.425781 175.46875 81.207031 177.253906 81.03125 C 179.039062 80.855469 180.824219 80.722656 182.617188 80.636719 C 184.40625 80.546875 186.199219 80.503906 187.992188 80.503906 C 189.785156 80.503906 191.578125 80.546875 193.367188 80.636719 C 195.15625 80.722656 196.945312 80.855469 198.730469 81.03125 C 200.515625 81.207031 202.292969 81.425781 204.066406 81.6875 C 205.839844 81.953125 207.605469 82.257812 209.363281 82.609375 C 211.121094 82.957031 212.871094 83.351562 214.609375 83.785156 C 216.351562 84.222656 218.078125 84.699219 219.792969 85.21875 C 221.507812 85.742188 223.210938 86.304688 224.898438 86.90625 C 226.585938 87.511719 228.257812 88.15625 229.914062 88.84375 C 231.570312 89.527344 233.210938 90.253906 234.832031 91.019531 C 236.453125 91.789062 238.050781 92.59375 239.632812 93.4375 C 241.214844 94.285156 242.773438 95.167969 244.3125 96.089844 C 245.851562 97.011719 247.363281 97.96875 248.855469 98.964844 C 250.34375 99.960938 251.8125 100.992188 253.25 102.0625 C 254.691406 103.128906 256.105469 104.234375 257.488281 105.371094 C 258.875 106.507812 260.234375 107.679688 261.5625 108.882812 C 262.890625 110.085938 264.1875 111.320312 265.457031 112.589844 C 266.722656 113.859375 267.960938 115.15625 269.164062 116.484375 C 270.367188 117.8125 271.539062 119.167969 272.675781 120.554688 C 273.8125 121.941406 274.914062 123.355469 275.984375 124.792969 C 277.050781 126.234375 278.082031 127.699219 279.078125 129.191406 C 280.074219 130.679688 281.035156 132.195312 281.957031 133.734375 C 282.878906 135.269531 283.761719 136.832031 284.605469 138.410156 C 285.453125 139.992188 286.257812 141.59375 287.023438 143.214844 C 287.792969 144.835938 288.515625 146.472656 289.203125 148.128906 C 289.890625 149.789062 290.535156 151.460938 291.140625 153.148438 C 291.742188 154.835938 292.304688 156.539062 292.824219 158.253906 C 293.347656 159.96875 293.824219 161.695312 294.257812 163.433594 C 294.695312 165.175781 295.085938 166.921875 295.4375 168.683594 C 295.789062 170.441406 296.09375 172.207031 296.355469 173.980469 C 296.621094 175.753906 296.839844 177.53125 297.015625 179.316406 C 297.191406 181.101562 297.324219 182.886719 297.410156 184.679688 C 297.5 186.46875 297.542969 188.261719 297.542969 190.054688 Z M 297.542969 190.054688 " fill-opacity="1" fill-rule="nonzero"/><g clip-path="url(#4a46b25715)"><path fill="#2b2a29" d="M 59.929688 170.34375 L 60.253906 168.359375 L 61.246094 168.519531 L 60.925781 170.507812 Z M 60.796875 165.371094 L 61.191406 163.398438 L 62.179688 163.597656 L 61.78125 165.570312 Z M 61.851562 160.4375 L 62.324219 158.480469 L 63.300781 158.71875 L 62.828125 160.671875 Z M 63.097656 155.542969 L 63.644531 153.609375 L 64.613281 153.882812 L 64.0625 155.820312 Z M 64.53125 150.703125 L 65.15625 148.792969 L 66.113281 149.105469 L 65.488281 151.015625 Z M 66.15625 145.925781 L 66.851562 144.039062 L 67.796875 144.386719 L 67.097656 146.273438 Z M 67.964844 141.210938 L 68.734375 139.355469 L 69.664062 139.742188 L 68.890625 141.597656 Z M 69.957031 136.574219 L 70.800781 134.746094 L 71.710938 135.171875 L 70.867188 136.996094 Z M 72.128906 132.015625 L 73.042969 130.226562 L 73.9375 130.683594 L 73.023438 132.472656 Z M 74.476562 127.550781 L 75.460938 125.792969 L 76.335938 126.285156 L 75.355469 128.042969 Z M 77 123.175781 L 78.050781 121.460938 L 78.90625 121.988281 L 77.855469 123.703125 Z M 79.6875 118.90625 L 80.808594 117.234375 L 81.644531 117.792969 L 80.523438 119.464844 Z M 82.542969 114.746094 C 82.933594 114.199219 83.328125 113.652344 83.730469 113.113281 L 84.539062 113.710938 C 84.140625 114.246094 83.75 114.789062 83.359375 115.332031 Z M 85.558594 110.699219 C 85.96875 110.164062 86.386719 109.636719 86.808594 109.113281 L 87.59375 109.738281 C 87.175781 110.261719 86.761719 110.785156 86.351562 111.3125 Z M 88.726562 106.769531 C 89.160156 106.253906 89.597656 105.742188 90.039062 105.234375 L 90.800781 105.890625 C 90.363281 106.398438 89.929688 106.90625 89.5 107.417969 Z M 92.050781 102.96875 C 92.5 102.46875 92.957031 101.976562 93.417969 101.484375 L 94.152344 102.171875 C 93.695312 102.660156 93.242188 103.148438 92.792969 103.644531 Z M 95.515625 99.296875 C 95.988281 98.820312 96.460938 98.34375 96.941406 97.867188 L 97.648438 98.585938 C 97.171875 99.054688 96.703125 99.527344 96.234375 100.003906 Z M 99.121094 95.765625 C 99.613281 95.304688 100.105469 94.847656 100.601562 94.394531 L 101.28125 95.136719 C 100.785156 95.585938 100.296875 96.039062 99.8125 96.5 Z M 102.863281 92.375 C 103.371094 91.933594 103.878906 91.496094 104.394531 91.0625 L 105.042969 91.832031 C 104.53125 92.261719 104.027344 92.695312 103.523438 93.136719 Z M 106.730469 89.136719 C 107.253906 88.714844 107.78125 88.292969 108.3125 87.878906 L 108.933594 88.671875 C 108.40625 89.085938 107.882812 89.5 107.363281 89.917969 Z M 110.722656 86.046875 C 111.261719 85.644531 111.804688 85.246094 112.351562 84.855469 L 112.941406 85.671875 C 112.398438 86.058594 111.859375 86.453125 111.324219 86.851562 Z M 114.835938 83.109375 L 116.503906 81.988281 L 117.066406 82.820312 L 115.398438 83.945312 Z M 119.054688 80.339844 L 120.765625 79.285156 L 121.292969 80.136719 L 119.582031 81.195312 Z M 123.378906 77.738281 L 125.128906 76.746094 L 125.625 77.621094 L 123.875 78.613281 Z M 127.800781 75.304688 L 129.589844 74.382812 L 130.050781 75.277344 L 128.261719 76.195312 Z M 132.316406 73.042969 L 134.136719 72.191406 L 134.5625 73.101562 L 132.742188 73.953125 Z M 136.914062 70.960938 L 138.769531 70.183594 L 139.15625 71.109375 L 137.304688 71.886719 Z M 141.589844 69.0625 L 143.472656 68.355469 L 143.828125 69.296875 L 141.941406 70.003906 Z M 146.335938 67.34375 L 148.246094 66.710938 L 148.5625 67.667969 L 146.652344 68.300781 Z M 151.148438 65.816406 L 153.082031 65.257812 L 153.359375 66.226562 L 151.425781 66.78125 Z M 156.015625 64.476562 L 157.96875 63.996094 L 158.207031 64.972656 L 156.253906 65.453125 Z M 160.929688 63.328125 L 162.902344 62.921875 L 163.101562 63.910156 L 161.132812 64.3125 Z M 165.886719 62.371094 L 167.871094 62.046875 L 168.035156 63.039062 L 166.050781 63.363281 Z M 170.878906 61.613281 L 172.875 61.363281 L 173 62.359375 L 171.003906 62.609375 Z M 175.894531 61.046875 L 177.898438 60.875 L 177.984375 61.878906 L 175.980469 62.046875 Z M 180.929688 60.675781 L 182.9375 60.582031 L 182.984375 61.589844 L 180.972656 61.679688 Z M 185.972656 60.5 L 187.984375 60.484375 L 187.992188 61.492188 L 185.980469 61.507812 Z M 191.019531 60.519531 L 193.03125 60.582031 L 193 61.589844 L 190.988281 61.527344 Z M 196.0625 60.734375 L 198.070312 60.875 L 198 61.878906 L 195.992188 61.738281 Z M 201.09375 61.144531 L 203.09375 61.363281 L 202.984375 62.363281 L 200.984375 62.144531 Z M 206.105469 61.75 L 208.097656 62.046875 L 207.949219 63.039062 L 205.957031 62.746094 Z M 211.089844 62.550781 L 213.066406 62.921875 L 212.878906 63.910156 L 210.902344 63.539062 Z M 216.039062 63.542969 L 218 63.992188 L 217.773438 64.972656 L 215.816406 64.523438 Z M 220.945312 64.730469 L 222.886719 65.257812 L 222.625 66.226562 L 220.683594 65.703125 Z M 225.800781 66.109375 L 227.722656 66.710938 L 227.421875 67.671875 L 225.5 67.070312 Z M 230.601562 67.675781 L 232.496094 68.351562 L 232.15625 69.300781 L 230.261719 68.625 Z M 235.335938 69.429688 L 237.199219 70.179688 L 236.824219 71.113281 L 234.960938 70.363281 Z M 239.996094 71.367188 L 241.832031 72.1875 L 241.421875 73.105469 L 239.585938 72.285156 Z M 244.578125 73.484375 L 246.378906 74.378906 L 245.933594 75.277344 L 244.132812 74.386719 Z M 249.074219 75.777344 L 250.839844 76.742188 L 250.359375 77.625 L 248.59375 76.660156 Z M 253.476562 78.246094 L 255.203125 79.277344 L 254.6875 80.140625 L 252.960938 79.109375 Z M 257.78125 80.882812 L 259.46875 81.980469 L 258.917969 82.824219 L 257.234375 81.726562 Z M 261.976562 83.683594 C 262.53125 84.070312 263.078125 84.457031 263.625 84.851562 L 263.039062 85.667969 C 262.496094 85.277344 261.949219 84.890625 261.402344 84.511719 Z M 266.0625 86.648438 C 266.601562 87.054688 267.132812 87.464844 267.664062 87.878906 L 267.046875 88.671875 C 266.519531 88.257812 265.988281 87.851562 265.457031 87.449219 Z M 270.03125 89.765625 C 270.550781 90.195312 271.070312 90.625 271.585938 91.058594 L 270.933594 91.828125 C 270.425781 91.394531 269.910156 90.96875 269.394531 90.546875 Z M 273.875 93.039062 C 274.378906 93.484375 274.878906 93.933594 275.378906 94.390625 L 274.699219 95.132812 C 274.207031 94.683594 273.710938 94.234375 273.210938 93.792969 Z M 277.589844 96.457031 C 278.078125 96.921875 278.558594 97.390625 279.039062 97.863281 L 278.332031 98.578125 C 277.855469 98.109375 277.375 97.644531 276.894531 97.183594 Z M 281.167969 100.015625 C 281.636719 100.5 282.101562 100.988281 282.5625 101.480469 L 281.828125 102.167969 C 281.371094 101.679688 280.910156 101.195312 280.445312 100.714844 Z M 284.605469 103.714844 C 285.054688 104.214844 285.5 104.71875 285.941406 105.230469 L 285.179688 105.886719 C 284.742188 105.382812 284.300781 104.878906 283.855469 104.382812 Z M 287.898438 107.539062 C 288.328125 108.058594 288.75 108.582031 289.171875 109.105469 L 288.386719 109.734375 C 287.96875 109.214844 287.546875 108.695312 287.121094 108.179688 Z M 291.039062 111.492188 C 291.445312 112.027344 291.851562 112.566406 292.25 113.105469 L 291.441406 113.703125 C 291.042969 113.167969 290.644531 112.632812 290.238281 112.101562 Z M 294.023438 115.5625 C 294.410156 116.117188 294.792969 116.667969 295.171875 117.226562 L 294.339844 117.789062 C 293.960938 117.238281 293.582031 116.6875 293.199219 116.144531 Z M 296.847656 119.753906 L 297.925781 121.449219 L 297.074219 121.988281 L 295.996094 120.292969 Z M 299.503906 124.046875 L 300.515625 125.785156 L 299.644531 126.289062 L 298.632812 124.550781 Z M 301.988281 128.4375 L 302.933594 130.214844 L 302.042969 130.6875 L 301.101562 128.910156 Z M 304.300781 132.925781 L 305.175781 134.738281 L 304.269531 135.171875 L 303.394531 133.359375 Z M 306.4375 137.5 L 307.238281 139.34375 L 306.316406 139.746094 L 305.515625 137.898438 Z M 308.394531 142.152344 L 309.121094 144.027344 L 308.183594 144.390625 L 307.457031 142.515625 Z M 310.164062 146.878906 L 310.820312 148.78125 L 309.867188 149.109375 L 309.214844 147.207031 Z M 311.75 151.671875 L 312.328125 153.597656 L 311.367188 153.886719 L 310.789062 151.960938 Z M 313.148438 156.523438 L 313.652344 158.46875 L 312.679688 158.722656 L 312.175781 156.773438 Z M 314.355469 161.421875 L 314.785156 163.386719 L 313.804688 163.601562 L 313.375 161.636719 Z M 314.355469 161.421875 " fill-opacity="1" fill-rule="nonzero"/></g><g clip-path="url(#2bc1ae8d0a)"><path fill="#bcb636" d="M 216.929688 240.453125 C 215.527344 229.945312 225.066406 217.875 225.066406 217.875 C 213.15625 230.214844 213.75 241.152344 212.78125 249.125 C 230.9375 240.992188 243.871094 223.425781 245.378906 202.679688 C 241.445312 225.472656 216.929688 240.453125 216.929688 240.453125 Z M 216.929688 240.453125 " fill-opacity="1" fill-rule="nonzero"/></g><path fill="#6d7a32" d="M 159.117188 177.84375 C 156.367188 176.171875 150.277344 172.183594 144.835938 167.171875 C 144.835938 167.171875 144.835938 167.226562 144.78125 167.226562 L 144.78125 167.171875 C 135.355469 159.253906 134.222656 152.140625 134.167969 149.230469 C 133.738281 158.769531 141.066406 166.417969 143.8125 168.898438 C 142.574219 170.835938 141.441406 172.886719 140.417969 175.039062 L 140.363281 174.824219 C 132.605469 176.980469 127.378906 184.308594 127.378906 184.308594 C 132.984375 181.238281 137.777344 179.511719 140.042969 178.757812 C 146.667969 176.871094 153.082031 176.765625 159.117188 177.84375 Z M 159.117188 177.84375 " fill-opacity="1" fill-rule="nonzero"/><g clip-path="url(#2c7f595f48)"><path fill="#bcb636" d="M 245.109375 191.472656 C 241.605469 164.316406 218.4375 143.25 190.257812 143.25 C 188.640625 143.25 187.027344 143.359375 185.464844 143.519531 C 184.871094 142.011719 184.117188 140.773438 184.117188 140.773438 C 184.386719 141.6875 184.816406 144.652344 184.976562 145.460938 C 185.515625 151.007812 184.601562 158.820312 178.726562 167.765625 C 178.726562 167.765625 176.949219 159.308594 178.082031 151.761719 C 176.355469 158.714844 175.0625 169.867188 179.804688 181.183594 C 179.804688 181.183594 170.539062 163.078125 178.027344 144.757812 C 179.914062 140.179688 182.554688 136.621094 182.554688 136.621094 C 177.867188 140.179688 175.117188 145.40625 175.117188 145.40625 L 174.957031 145.566406 C 169.945312 147.023438 165.257812 149.125 160.949219 151.871094 C 156.527344 149.125 153.132812 148.476562 153.132812 148.476562 C 154.695312 149.445312 157.390625 151.710938 159.007812 153.054688 C 176.84375 168.144531 177.273438 180.050781 177.273438 180.050781 C 167.519531 175.253906 159.117188 158.550781 159.117188 158.550781 C 158.953125 169.273438 175.710938 181.882812 175.710938 181.882812 C 161.539062 174.285156 156.3125 163.886719 154.320312 156.667969 C 154.320312 156.667969 154.320312 156.613281 154.320312 156.613281 C 153.027344 152.734375 153.1875 148.367188 153.1875 148.367188 C 151.355469 152.25 153.1875 157.636719 153.1875 157.636719 L 153.242188 157.746094 C 152.757812 158.175781 152.273438 158.660156 151.789062 159.144531 C 150.441406 157.851562 148.015625 155.75 143.867188 152.949219 C 143.867188 152.949219 147.53125 156.128906 150.117188 160.652344 C 150.117188 160.652344 150.117188 160.707031 150.171875 160.707031 C 151.464844 163.078125 152.542969 165.828125 153.242188 169.058594 C 153.242188 169.058594 150.171875 167.496094 146.667969 164.800781 C 144.78125 163.1875 139.664062 158.011719 139.664062 158.011719 C 141.28125 161.300781 146.074219 165.558594 146.074219 165.558594 C 150.226562 169.382812 156.152344 173.855469 164.828125 178.917969 C 178.457031 182.851562 189.234375 191.636719 193.976562 196 C 194.03125 196.054688 194.085938 196.109375 194.136719 196.160156 C 192.683594 190.828125 193.4375 186.410156 194.03125 184.253906 C 192.035156 183.230469 191.175781 180.265625 192.144531 177.25 C 193.167969 174.015625 195.917969 172.023438 198.234375 172.777344 C 200.550781 173.53125 201.628906 176.765625 200.550781 179.996094 C 199.632812 182.800781 197.480469 184.632812 195.429688 184.632812 C 194.839844 186.949219 193.921875 192.226562 196.347656 198.316406 L 196.238281 198.371094 C 196.992188 199.179688 197.695312 199.988281 198.339844 200.796875 C 198.878906 201.441406 199.363281 202.089844 199.796875 202.679688 C 199.042969 196.96875 200.765625 191.257812 201.898438 188.347656 C 200.28125 186.894531 200.117188 183.929688 201.628906 181.238281 C 203.296875 178.273438 206.367188 176.871094 208.523438 178.109375 C 210.625 179.296875 211.003906 182.691406 209.332031 185.65625 C 207.824219 188.292969 205.238281 189.640625 203.191406 189.101562 C 201.898438 192.550781 199.902344 199.664062 202.003906 205.753906 C 208.738281 215.289062 210.519531 221.378906 210.949219 224.125 C 210.839844 220.894531 211.917969 217.335938 213.15625 214.320312 L 213.050781 214.320312 C 213.050781 214.265625 213.425781 209.46875 209.386719 205.050781 C 208.09375 205.804688 206.152344 205.265625 204.804688 203.703125 C 203.296875 201.980469 203.082031 199.71875 204.320312 198.640625 C 205.5625 197.5625 207.769531 198.046875 209.277344 199.773438 C 210.464844 201.117188 210.839844 202.789062 210.355469 203.972656 C 212.996094 206.722656 213.964844 209.632812 214.34375 211.679688 C 214.9375 210.386719 215.527344 209.308594 215.960938 208.554688 C 214.613281 207.261719 214.503906 204.730469 215.90625 202.464844 C 217.414062 199.988281 220.054688 198.855469 221.886719 199.933594 C 223.664062 201.011719 223.933594 203.921875 222.425781 206.398438 C 221.078125 208.609375 218.816406 209.738281 217.089844 209.199219 C 208.09375 226.226562 212.996094 232.316406 212.996094 232.316406 C 220.484375 199.824219 241.714844 192.496094 245.109375 191.472656 Z M 245.109375 191.472656 " fill-opacity="1" fill-rule="nonzero"/></g><g clip-path="url(#3ac8a5905d)"><path fill="#6d7a32" d="M 208.578125 234.363281 C 204.753906 230.753906 199.582031 232.691406 197.964844 233.394531 C 198.234375 235.226562 196.941406 237.378906 194.621094 238.621094 C 191.875 240.074219 188.804688 239.644531 187.78125 237.703125 C 186.703125 235.710938 188.101562 232.960938 190.796875 231.507812 C 193.328125 230.160156 196.132812 230.429688 197.371094 232.101562 C 198.824219 231.453125 202.652344 230.054688 206.367188 231.347656 C 204.050781 228.4375 200.820312 225.257812 196.886719 223.585938 C 196.347656 224.988281 194.675781 226.121094 192.574219 226.28125 C 189.988281 226.496094 187.726562 225.09375 187.617188 223.210938 C 187.457031 221.324219 189.503906 219.652344 192.089844 219.4375 C 194.515625 219.277344 196.5625 220.40625 196.992188 222.078125 C 202.597656 224.234375 206.855469 229.246094 209.277344 232.855469 C 208.902344 230.914062 208.308594 228.976562 207.609375 226.925781 C 193.113281 187.703125 166.605469 197.023438 166.605469 197.023438 C 178.1875 194.382812 192.574219 210.0625 192.574219 210.0625 C 166.121094 216.90625 147.746094 198.800781 147.746094 198.800781 C 175.386719 183.875 194.570312 200.742188 194.570312 200.742188 C 159.007812 166.742188 138.640625 181.398438 138.640625 181.398438 C 151.519531 177.574219 160.894531 181.613281 160.894531 181.613281 C 151.839844 189.050781 142.679688 191.582031 135.355469 192.066406 C 135.355469 192.066406 135.355469 192.121094 135.355469 192.121094 L 135.300781 192.066406 C 127.273438 192.550781 119.566406 190.125 119.566406 190.125 C 127.757812 193.898438 132.496094 195.136719 135.03125 195.515625 C 134.976562 196.539062 134.921875 197.507812 134.921875 198.53125 C 134.921875 229.082031 159.707031 253.867188 190.257812 253.867188 C 196.777344 253.867188 203.027344 252.683594 208.792969 250.636719 C 209.925781 246.433594 210.464844 241.691406 209.925781 236.519531 C 209.65625 236.085938 209.171875 235.277344 208.578125 234.363281 Z M 208.578125 234.363281 " fill-opacity="1" fill-rule="nonzero"/></g><path fill="#ffffff" d="M 134.167969 149.175781 C 134.167969 148.691406 134.167969 148.261719 134.277344 147.777344 C 134.222656 147.777344 134.167969 148.261719 134.167969 149.175781 Z M 134.167969 149.175781 " fill-opacity="1" fill-rule="nonzero"/><g clip-path="url(#de19c5ff62)"><g clip-path="url(#60bd0f08ac)"><path fill="#6d7a32" d="M 93 215.480469 L 102.453125 215.480469 L 102.453125 224.933594 L 93 224.933594 Z M 93 215.480469 " fill-opacity="1" fill-rule="nonzero"/></g></g><g fill="#000000" fill-opacity="1"><g transform="translate(133.257553, 132.608907)"><g><path d="M 7.046875 -30.71875 L 11.453125 -7.796875 L 7.40625 -5.046875 L -12.296875 -17.546875 L -7.859375 -20.5625 L 6.125 -11.59375 L 2.984375 -27.953125 Z M 7.046875 -30.71875 "/></g></g></g><g fill="#000000" fill-opacity="1"><g transform="translate(150.737389, 121.18757)"><g><path d="M -6.375 -20.609375 L -1.84375 -22.625 L 6.859375 -3.046875 L 2.328125 -1.03125 Z M -6.375 -20.609375 "/></g></g></g><g fill="#000000" fill-opacity="1"><g transform="translate(158.203082, 117.338054)"><g><path d="M 2.25 -18.578125 L -4.359375 -16.8125 L -5.390625 -20.734375 L 12.625 -25.546875 L 13.65625 -21.625 L 7.046875 -19.859375 L 11.53125 -3.078125 L 6.734375 -1.796875 Z M 2.25 -18.578125 "/></g></g></g><g fill="#000000" fill-opacity="1"><g transform="translate(174.050176, 112.55492)"><g><path d="M 16.5 -5.078125 L 6.5625 -4.796875 L 4.796875 -0.140625 L -0.28125 0.015625 L 8.625 -21.6875 L 13.53125 -21.828125 L 23.71875 -0.703125 L 18.53125 -0.546875 Z M 14.828125 -8.8125 L 11.203125 -16.890625 L 8.046875 -8.609375 Z M 14.828125 -8.8125 "/></g></g></g><g fill="#000000" fill-opacity="1"><g transform="translate(194.790584, 111.504011)"><g><path d="M 26.546875 -15.71875 L 21.59375 5.125 L 17.625 4.1875 L 10.234375 -10.921875 L 7.234375 1.71875 L 2.484375 0.59375 L 7.4375 -20.25 L 11.40625 -19.3125 L 18.75 -4.171875 L 21.765625 -16.84375 Z M 26.546875 -15.71875 "/></g></g></g><g fill="#000000" fill-opacity="1"><g transform="translate(216.7176, 117.228383)"><g><path d="M 11.125 -18.484375 L 15.640625 -16.453125 L 6.84375 3.078125 L 2.328125 1.046875 Z M 11.125 -18.484375 "/></g></g></g><g fill="#000000" fill-opacity="1"><g transform="translate(224.499558, 119.952198)"><g><path d="M 10.34375 7.515625 C 8.550781 6.285156 7.191406 4.78125 6.265625 3 C 5.347656 1.21875 4.945312 -0.648438 5.0625 -2.609375 C 5.175781 -4.566406 5.832031 -6.414062 7.03125 -8.15625 C 8.226562 -9.914062 9.71875 -11.203125 11.5 -12.015625 C 13.28125 -12.835938 15.164062 -13.140625 17.15625 -12.921875 C 19.15625 -12.703125 21.0625 -11.972656 22.875 -10.734375 C 24.40625 -9.679688 25.601562 -8.460938 26.46875 -7.078125 C 27.34375 -5.703125 27.851562 -4.21875 28 -2.625 L 23.734375 -2 C 23.484375 -4.207031 22.472656 -5.914062 20.703125 -7.125 C 19.609375 -7.875 18.46875 -8.300781 17.28125 -8.40625 C 16.09375 -8.507812 14.960938 -8.296875 13.890625 -7.765625 C 12.828125 -7.242188 11.921875 -6.429688 11.171875 -5.328125 C 10.421875 -4.234375 9.988281 -3.09375 9.875 -1.90625 C 9.769531 -0.71875 9.984375 0.40625 10.515625 1.46875 C 11.046875 2.53125 11.859375 3.4375 12.953125 4.1875 C 14.722656 5.394531 16.6875 5.710938 18.84375 5.140625 L 19.796875 9.375 C 18.253906 9.8125 16.675781 9.875 15.0625 9.5625 C 13.457031 9.25 11.882812 8.566406 10.34375 7.515625 Z M 10.34375 7.515625 "/></g></g></g><g fill="#000000" fill-opacity="1"><g transform="translate(99.979534, 235.550236)"><g><path d="M 14.484375 3.625 L 5.671875 9.109375 L 4.40625 7.078125 L 8.015625 4.828125 L 5.53125 0.828125 L 1.921875 3.078125 L 0.65625 1.046875 L 9.46875 -4.4375 L 10.734375 -2.40625 L 7.25 -0.25 L 9.734375 3.75 L 13.21875 1.59375 Z M 14.484375 3.625 "/></g></g></g><g fill="#000000" fill-opacity="1"><g transform="translate(108.153635, 248.142432)"><g><path d="M 7.40625 5.875 L 5.921875 7.109375 L 0.796875 0.953125 L 8.765625 -5.6875 L 13.765625 0.328125 L 12.28125 1.5625 L 8.796875 -2.640625 L 7.0625 -1.1875 L 10.140625 2.515625 L 8.71875 3.703125 L 5.640625 0 L 3.796875 1.53125 Z M 7.40625 5.875 "/></g></g></g><g fill="#000000" fill-opacity="1"><g transform="translate(116.578476, 258.00977)"><g><path d="M 7.4375 3.8125 L 3.890625 0.5625 L 1.71875 1.578125 L -0.109375 -0.09375 L 10.328125 -4.609375 L 12.078125 -3 L 8.46875 7.765625 L 6.609375 6.0625 Z M 8.109375 1.953125 L 9.59375 -2.078125 L 5.6875 -0.265625 Z M 8.109375 1.953125 "/></g></g></g><g fill="#000000" fill-opacity="1"><g transform="translate(127.336996, 267.512195)"><g><path d="M 6.984375 -7.78125 L 8.9375 -6.390625 L 4.09375 0.5 L 8.34375 3.484375 L 7.21875 5.078125 L 1.015625 0.703125 Z M 6.984375 -7.78125 "/></g></g></g><g fill="#000000" fill-opacity="1"><g transform="translate(137.171505, 274.228097)"><g><path d="M 6.96875 -5.78125 L 4.0625 -7.359375 L 5 -9.09375 L 12.9375 -4.796875 L 12 -3.0625 L 9.09375 -4.640625 L 5.09375 2.75 L 2.96875 1.609375 Z M 6.96875 -5.78125 "/></g></g></g><g fill="#000000" fill-opacity="1"><g transform="translate(147.946882, 279.927383)"><g><path d="M 13.703125 -5.90625 L 10.03125 3.796875 L 7.796875 2.953125 L 9.296875 -1.015625 L 4.890625 -2.6875 L 3.390625 1.28125 L 1.15625 0.4375 L 4.828125 -9.265625 L 7.0625 -8.421875 L 5.609375 -4.59375 L 10.015625 -2.921875 L 11.46875 -6.75 Z M 13.703125 -5.90625 "/></g></g></g><g fill="#000000" fill-opacity="1"><g transform="translate(161.984676, 284.854861)"><g/></g></g><g fill="#000000" fill-opacity="1"><g transform="translate(168.853307, 286.676163)"><g><path d="M 8.296875 -0.984375 L 3.546875 -1.703125 L 2.296875 0.34375 L -0.140625 -0.015625 L 5.984375 -9.59375 L 8.328125 -9.25 L 11.375 1.71875 L 8.875 1.34375 Z M 7.828125 -2.90625 L 6.796875 -7.078125 L 4.578125 -3.40625 Z M 7.828125 -2.90625 "/></g></g></g><g fill="#000000" fill-opacity="1"><g transform="translate(183.148791, 288.630072)"><g><path d="M 10.78125 -10.3125 L 10.734375 0.0625 L 8.765625 0.046875 L 3.625 -6.28125 L 3.59375 0.015625 L 1.234375 0 L 1.28125 -10.375 L 3.265625 -10.359375 L 8.390625 -4.03125 L 8.421875 -10.328125 Z M 10.78125 -10.3125 "/></g></g></g><g fill="#000000" fill-opacity="1"><g transform="translate(198.218424, 288.487163)"><g><path d="M -0.265625 -10.4375 L 4.390625 -11.109375 C 5.503906 -11.273438 6.519531 -11.207031 7.4375 -10.90625 C 8.351562 -10.601562 9.101562 -10.097656 9.6875 -9.390625 C 10.269531 -8.691406 10.632812 -7.832031 10.78125 -6.8125 C 10.9375 -5.78125 10.832031 -4.84375 10.46875 -4 C 10.101562 -3.15625 9.523438 -2.457031 8.734375 -1.90625 C 7.941406 -1.363281 6.988281 -1.007812 5.875 -0.84375 L 1.21875 -0.171875 Z M 5.484375 -2.78125 C 6.503906 -2.9375 7.28125 -3.34375 7.8125 -4 C 8.34375 -4.664062 8.535156 -5.488281 8.390625 -6.46875 C 8.253906 -7.445312 7.835938 -8.175781 7.140625 -8.65625 C 6.441406 -9.132812 5.582031 -9.296875 4.5625 -9.140625 L 2.390625 -8.828125 L 3.3125 -2.46875 Z M 5.484375 -2.78125 "/></g></g></g><g fill="#000000" fill-opacity="1"><g transform="translate(213.1527, 285.942549)"><g/></g></g><g fill="#000000" fill-opacity="1"><g transform="translate(220.040705, 284.197074)"><g><path d="M 6.390625 -8.140625 C 7.023438 -8.171875 7.570312 -8.039062 8.03125 -7.75 C 8.5 -7.457031 8.847656 -7.007812 9.078125 -6.40625 C 9.390625 -5.550781 9.300781 -4.769531 8.8125 -4.0625 C 8.320312 -3.363281 7.441406 -2.78125 6.171875 -2.3125 L 1.15625 -0.4375 L -2.46875 -10.15625 L 2.28125 -11.921875 C 3.457031 -12.359375 4.445312 -12.46875 5.25 -12.25 C 6.050781 -12.039062 6.597656 -11.546875 6.890625 -10.765625 C 7.066406 -10.296875 7.113281 -9.832031 7.03125 -9.375 C 6.945312 -8.925781 6.734375 -8.515625 6.390625 -8.140625 Z M 0.375 -9.28125 L 1.234375 -7 L 3.484375 -7.828125 C 4.035156 -8.035156 4.414062 -8.289062 4.625 -8.59375 C 4.84375 -8.894531 4.878906 -9.234375 4.734375 -9.609375 C 4.597656 -9.992188 4.347656 -10.222656 3.984375 -10.296875 C 3.628906 -10.378906 3.175781 -10.316406 2.625 -10.109375 Z M 5.359375 -3.953125 C 5.953125 -4.171875 6.363281 -4.429688 6.59375 -4.734375 C 6.832031 -5.035156 6.875 -5.394531 6.71875 -5.8125 C 6.414062 -6.613281 5.664062 -6.789062 4.46875 -6.34375 L 1.84375 -5.359375 L 2.734375 -2.96875 Z M 5.359375 -3.953125 "/></g></g></g><g fill="#000000" fill-opacity="1"><g transform="translate(233.405111, 278.936832)"><g><path d="M 7.25 -6.046875 L 8.15625 -4.359375 L 1.09375 -0.578125 L -3.796875 -9.71875 L 3.09375 -13.421875 L 4 -11.71875 L -0.796875 -9.140625 L 0.265625 -7.15625 L 4.5 -9.421875 L 5.375 -7.78125 L 1.140625 -5.515625 L 2.28125 -3.390625 Z M 7.25 -6.046875 "/></g></g></g><g fill="#000000" fill-opacity="1"><g transform="translate(244.770294, 272.676244)"><g><path d="M 5.234375 -6.515625 L 1.34375 -3.703125 L 1.890625 -1.359375 L -0.109375 0.078125 L -2.4375 -11.03125 L -0.515625 -12.421875 L 9.328125 -6.734375 L 7.265625 -5.25 Z M 3.546875 -7.546875 L -0.109375 -9.8125 L 0.875 -5.640625 Z M 3.546875 -7.546875 "/></g></g></g><g fill="#000000" fill-opacity="1"><g transform="translate(256.335515, 264.060947)"><g><path d="M 4.328125 -3.9375 C 3.253906 -2.90625 2.132812 -2.394531 0.96875 -2.40625 C -0.1875 -2.425781 -1.296875 -2.984375 -2.359375 -4.078125 L -6.40625 -8.25 L -4.671875 -9.921875 L -0.6875 -5.8125 C 0.601562 -4.476562 1.800781 -4.34375 2.90625 -5.40625 C 3.445312 -5.9375 3.703125 -6.5 3.671875 -7.09375 C 3.640625 -7.6875 3.289062 -8.328125 2.625 -9.015625 L -1.359375 -13.125 L 0.359375 -14.78125 L 4.40625 -10.609375 C 5.46875 -9.515625 5.984375 -8.382812 5.953125 -7.21875 C 5.929688 -6.0625 5.390625 -4.96875 4.328125 -3.9375 Z M 4.328125 -3.9375 "/></g></g></g><g fill="#000000" fill-opacity="1"><g transform="translate(266.698189, 253.647041)"><g><path d="M -4.5 -7.859375 L -6.5625 -5.265625 L -8.09375 -6.5 L -2.46875 -13.578125 L -0.9375 -12.34375 L -3 -9.75 L 3.59375 -4.53125 L 2.09375 -2.640625 Z M -4.5 -7.859375 "/></g></g></g><g fill="#000000" fill-opacity="1"><g transform="translate(274.11953, 244.039876)"><g><path d="M 0.09375 -7.203125 L 3.234375 -5.296875 L 1.984375 -3.25 L -1.171875 -5.171875 L -8.96875 -5.21875 L -7.640625 -7.390625 L -2.265625 -7.359375 L -4.765625 -12.109375 L -3.53125 -14.125 Z M 0.09375 -7.203125 "/></g></g></g><g clip-path="url(#3272a1b9bb)"><g clip-path="url(#227f62de37)"><path fill="#6d7a32" d="M 274.238281 215.480469 L 283.691406 215.480469 L 283.691406 224.933594 L 274.238281 224.933594 Z M 274.238281 215.480469 " fill-opacity="1" fill-rule="nonzero"/></g></g></svg>